<svg xmlns="http://www.w3.org/2000/svg" width="22" height="17.568" viewBox="0 0 22 17.568"><defs><style>.a{fill:#ababb5;}</style></defs><path class="a" d="M10.693,36.608,3.652,42.563v6.428a.619.619,0,0,0,.611.627l4.28-.011a.62.62,0,0,0,.608-.628V45.226a.619.619,0,0,1,.611-.628h2.444a.619.619,0,0,1,.611.628v3.751a.636.636,0,0,0,.178.445.6.6,0,0,0,.433.184l4.278.012a.619.619,0,0,0,.611-.627V42.559l-7.04-5.951a.456.456,0,0,0-.584,0Zm11.123,4.048-3.193-2.7V32.521a.465.465,0,0,0-.458-.471H16.026a.465.465,0,0,0-.458.471v2.848l-3.419-2.889a1.8,1.8,0,0,0-2.33,0L.151,40.655a.479.479,0,0,0-.061.663l.974,1.216a.455.455,0,0,0,.31.17A.45.45,0,0,0,1.71,42.6L10.693,35a.456.456,0,0,1,.584,0l8.984,7.6a.45.45,0,0,0,.645-.063l.974-1.216a.479.479,0,0,0,.1-.346.474.474,0,0,0-.167-.318Z" transform="translate(0.015 -32.05)"/></svg>